<?xml version="1.0" encoding="UTF-8" standalone="no"?>
<svg width="307px" height="198px" viewBox="0 0 307 198" version="1.1" xmlns="http://www.w3.org/2000/svg" xmlns:xlink="http://www.w3.org/1999/xlink">
    <!-- Generator: Sketch 43.1 (39012) - http://www.bohemiancoding.com/sketch -->
    <title>Logo</title>
    <desc>Created with Sketch.</desc>
    <defs></defs>
    <g id="Mockup" stroke="none" stroke-width="1" fill="none" fill-rule="evenodd">
        <g id="Desktop" transform="translate(-397.000000, -423.000000)" fill="#FFFFFF">
            <g id="Headline" transform="translate(200.000000, 422.000000)">
                <g id="Logo" transform="translate(197.000000, 0.000000)">
                    <path d="M83.0486422,145.032351 C82.4611132,145.064984 81.7823542,145.222128 81.012345,145.503787 C80.2423358,145.785446 79.4678624,146.279089 78.6889015,146.984732 C77.9099406,147.690376 77.1621925,148.660308 76.445635,149.894559 C75.7290774,151.128809 75.113871,152.710313 74.5999973,154.639118 C74.0861236,156.567922 73.714715,158.895978 73.4857604,161.623356 C73.2568058,164.350733 73.2455875,167.554608 73.4521052,171.235075 C73.6489045,174.742345 74.0099828,177.773522 74.5353511,180.328698 C75.0607194,182.883874 75.6950774,185.047482 76.4384439,186.819586 C77.1818105,188.59169 77.9991204,190.028477 78.8903981,191.129988 C79.7816758,192.2315 80.7021864,193.076196 81.6519574,193.664103 C82.6017285,194.252009 83.5402484,194.639649 84.4675455,194.827034 C85.3948425,195.014419 86.2610443,195.085751 87.0661767,195.041031 C87.9148298,194.993894 88.7682763,194.837907 89.6265416,194.573063 C90.484807,194.308219 91.3212729,193.946863 92.1359644,193.488984 C92.950656,193.031105 93.7278362,192.488448 94.4675282,191.860996 C95.2072203,191.233545 95.8822021,190.522828 96.4924938,189.728826 L98.0433085,191.108598 C97.4354463,191.9459 96.6979444,192.806679 95.8307804,193.690959 C94.9636165,194.57524 93.9453337,195.391892 92.7759016,196.14094 C91.6064694,196.889989 90.2831897,197.5227 88.8060227,198.039092 C87.3288557,198.555485 85.6763628,198.864439 83.8484946,198.965965 C80.9978905,199.124297 78.3182395,198.730209 75.8094611,197.783691 C73.3006827,196.837172 71.0737517,195.27237 69.1286011,193.089236 C67.1834506,190.906103 65.5938693,188.057174 64.3598096,184.542366 C63.12575,181.027558 62.3690283,176.780489 62.089622,171.801033 C61.827223,167.124674 62.1410202,162.991881 63.031023,159.40253 C63.9210257,155.813179 65.235191,152.78125 66.9735582,150.306653 C68.7119255,147.832056 70.8094661,145.923903 73.2662432,144.582136 C75.7230203,143.240369 78.376671,142.490331 81.2272751,142.332 C83.1204244,142.226848 84.8549272,142.309673 86.4308356,142.580477 C88.0067441,142.851281 89.3795797,143.296236 90.5493837,143.915356 C91.7191877,144.534476 92.642405,145.330159 93.3190633,146.302429 C93.9957215,147.274699 94.3698819,148.399486 94.4415557,149.676825 C94.4743556,150.26137 94.4107534,150.878407 94.2507473,151.527954 C94.0907412,152.177501 93.8243404,152.778656 93.451537,153.331436 C93.0787337,153.884216 92.6079893,154.344702 92.0392898,154.712907 C91.4705902,155.081112 90.7945645,155.286967 90.0111924,155.330478 C89.3148617,155.369155 88.7677979,155.247522 88.3699846,154.965576 C87.9721714,154.68363 87.6668176,154.298826 87.4539141,153.811154 C87.2410107,153.323482 87.0894423,152.76183 86.9992046,152.126183 C86.9089668,151.490535 86.8341394,150.837753 86.7747199,150.167817 C86.7153005,149.497882 86.629593,148.845704 86.5175949,148.211265 C86.4055968,147.576826 86.2213885,147.016987 85.9649643,146.531733 C85.7085401,146.046478 85.3542263,145.664394 84.9020123,145.385469 C84.4497982,145.106545 83.8320144,144.98884 83.0486422,145.032351 Z M89.6702591,173.407097 C89.5092918,170.571074 89.7817192,168.063658 90.4875495,165.884772 C91.1933799,163.705887 92.1965968,161.863239 93.4972304,160.356774 C94.7978639,158.850308 96.3417843,157.688537 98.1290378,156.871428 C99.9162912,156.054319 101.810829,155.589535 103.812708,155.477063 C105.814587,155.364592 107.748137,155.587155 109.613417,156.144759 C111.478696,156.702363 113.140883,157.62428 114.600026,158.91054 C116.05917,160.196799 117.261442,161.861241 118.206881,163.903917 C119.152319,165.946593 119.706128,168.39673 119.868324,171.254402 C120.029291,174.090425 119.7584,176.624902 119.055641,178.85791 C118.352883,181.090918 117.353045,182.9931 116.056097,184.564513 C114.75915,186.135926 113.218609,187.35723 111.434427,188.228462 C109.650246,189.099694 107.757244,189.591538 105.755365,189.70401 C103.753486,189.816481 101.818093,189.561446 99.9491268,188.938894 C98.080161,188.316343 96.4142882,187.329479 94.9514585,185.978273 C93.4886288,184.627067 92.282977,182.903091 91.3344669,180.806292 C90.3859568,178.709494 89.8312264,176.24312 89.6702591,173.407097 Z M111.119738,171.954597 C111.021438,170.222674 110.86668,168.553674 110.65546,166.947545 C110.44424,165.341416 110.128924,163.920331 109.709503,162.684247 C109.290082,161.448164 108.732791,160.475029 108.037612,159.764813 C107.342433,159.054597 106.461748,158.729445 105.39553,158.789349 C104.329312,158.849252 103.492247,159.292629 102.88431,160.119495 C102.276373,160.94636 101.83489,162.013615 101.559849,163.321293 C101.284807,164.62897 101.139582,166.108506 101.12417,167.759945 C101.108758,169.411384 101.150202,171.10304 101.248502,172.834962 C101.346803,174.566884 101.49735,176.257839 101.700148,177.907878 C101.902945,179.557916 102.215279,181.022604 102.637157,182.301986 C103.059035,183.581367 103.618784,184.5978 104.316421,185.351314 C105.014057,186.104828 105.895971,186.451628 106.962189,186.391725 C108.028407,186.331821 108.86455,185.872207 109.470644,185.012869 C110.076738,184.15353 110.515763,183.042977 110.787733,181.681177 C111.059703,180.319377 111.207603,178.790826 111.231437,177.095477 C111.255272,175.400129 111.218039,173.686519 111.119738,171.954597 Z M132.671083,184.55091 C132.687217,184.832338 132.657498,185.17066 132.581923,185.565887 C132.506348,185.961114 132.298983,186.342095 131.959819,186.708843 C131.620656,187.075591 131.115517,187.402886 130.444386,187.690738 C129.773255,187.978591 128.861094,188.155237 127.707874,188.220682 C126.554655,188.286128 125.64392,188.202072 124.97564,187.968512 C124.30736,187.734952 123.804927,187.443118 123.468325,187.093002 C123.131722,186.742885 122.914176,186.375158 122.81568,185.98981 C122.717184,185.604462 122.661111,185.292726 122.647458,185.054595 L120.245904,143.16528 C120.209911,142.537479 120.031703,141.999201 119.711275,141.550432 C119.390846,141.101663 118.882498,140.897039 118.186215,140.936553 C117.816314,140.957545 117.498789,141.03529 117.233629,141.169791 C116.96847,141.304292 116.690409,141.499249 116.399437,141.754668 L115.701995,141.012376 C116.178867,140.572657 116.710439,140.13527 117.296726,139.700201 C117.883013,139.265132 118.53192,138.875382 119.243466,138.530939 C119.955011,138.186496 120.718606,137.8934 121.534272,137.651642 C122.349939,137.409884 123.214695,137.263076 124.128566,137.211213 C125.542892,137.13095 126.652557,137.258013 127.457595,137.592406 C128.262634,137.926798 128.865918,138.359508 129.267467,138.890549 C129.669016,139.421589 129.925551,139.993429 130.037079,140.606085 C130.148607,141.21874 130.218022,141.763191 130.245326,142.239455 L132.671083,184.55091 Z M148.176101,183.50577 C148.19232,183.787194 148.162701,184.125525 148.087245,184.520774 C148.011788,184.916023 147.804536,185.297066 147.465482,185.663914 C147.126429,186.030762 146.621387,186.358206 145.950342,186.646257 C145.279297,186.934308 144.367188,187.111224 143.213989,187.17701 C142.060789,187.242796 141.150028,187.159009 140.481679,186.925647 C139.81333,186.692285 139.310809,186.400599 138.974103,186.050582 C138.637396,185.700564 138.41974,185.332902 138.321129,184.947583 C138.222518,184.562264 138.166351,184.250545 138.152628,184.012418 L135.738567,142.123815 C135.702387,141.496024 135.524019,140.957799 135.203456,140.509125 C134.882894,140.06045 134.374484,139.855976 133.678213,139.895696 C133.308319,139.916797 132.990817,139.994636 132.725697,140.129216 C132.460578,140.263795 132.182575,140.458834 131.89168,140.714339 L131.194016,139.972254 C131.670757,139.532394 132.202198,139.094849 132.788355,138.659607 C133.374512,138.224365 134.023303,137.834423 134.734746,137.489769 C135.446189,137.145116 136.209696,136.851794 137.02529,136.609795 C137.840884,136.367796 138.705596,136.220733 139.619452,136.168601 C141.033754,136.08792 142.143457,136.214655 142.948595,136.548809 C143.753733,136.882964 144.357146,137.315495 144.758854,137.846417 C145.160562,138.377339 145.417267,138.949103 145.528978,139.561726 C145.640688,140.174348 145.710266,140.718779 145.737713,141.195034 L148.176101,183.50577 Z M159.958007,170.501917 C159.998135,171.19464 160.145061,171.940957 160.398788,172.740889 C160.652516,173.540821 160.999023,174.340851 161.438322,175.141002 C161.87762,175.941154 162.407188,176.698108 163.027041,177.411887 C163.646894,178.125667 164.349067,178.753268 165.13358,179.29471 C165.918093,179.836151 166.777289,180.253846 167.711194,180.547807 C168.645099,180.841768 169.655989,180.957555 170.743895,180.895173 C171.505429,180.851506 172.207541,180.724369 172.850252,180.513759 C173.492964,180.303149 174.088388,180.030096 174.636543,179.694591 C175.184697,179.359086 175.708265,178.976127 176.20726,178.545703 C176.706256,178.115279 177.203676,177.657803 177.699537,177.17326 L178.560606,177.905783 C178.099044,178.605555 177.499825,179.378367 176.762931,180.224243 C176.026037,181.070119 175.12315,181.876633 174.054241,182.64381 C172.985333,183.410986 171.724602,184.069696 170.272012,184.619959 C168.819421,185.170222 167.146673,185.49962 165.253717,185.608165 C163.360762,185.71671 161.497039,185.481501 159.662493,184.902532 C157.827948,184.323563 156.174939,183.392117 154.703417,182.108168 C153.231895,180.824218 152.018371,179.188847 151.062806,177.202007 C150.107242,175.215167 149.550466,172.857984 149.392461,170.130387 C149.278346,168.160455 149.423853,166.33856 149.828984,164.664647 C150.234116,162.990734 150.828149,161.468908 151.6111,160.099123 C152.394051,158.729338 153.32782,157.513818 154.412437,156.452527 C155.497054,155.391237 156.651206,154.494298 157.874929,153.761683 C159.098653,153.029068 160.35896,152.457259 161.655888,152.046239 C162.952817,151.635219 164.21049,151.394779 165.428944,151.324911 C167.039044,151.232586 168.452453,151.325293 169.669214,151.603034 C170.885974,151.880775 171.908354,152.289113 172.736383,152.82806 C173.564412,153.367006 174.196499,154.009485 174.632663,154.755518 C175.068826,155.50155 175.311357,156.296682 175.360263,157.140938 C175.419202,158.158376 175.178453,159.089816 174.638009,159.935287 C174.097565,160.780758 173.355353,161.534621 172.41135,162.196897 L159.958007,170.501917 Z M166.136201,163.534095 C166.409025,163.344695 166.633203,163.163517 166.808741,162.990555 C166.98428,162.817593 167.119859,162.614346 167.215483,162.380808 C167.311106,162.14727 167.376396,161.861177 167.411354,161.52252 C167.446313,161.183863 167.44937,160.765594 167.420528,160.267699 C167.389178,159.726509 167.294546,159.129228 167.136629,158.475839 C166.978712,157.822449 166.7414,157.21163 166.424687,156.643364 C166.107973,156.075099 165.720755,155.608621 165.26302,155.243917 C164.805286,154.879213 164.271813,154.71433 163.662586,154.749264 C162.879294,154.794179 162.223722,155.065252 161.695852,155.56249 C161.167981,156.059728 160.745866,156.68664 160.429493,157.443244 C160.113121,158.199849 159.878862,159.054899 159.726709,160.008422 C159.574556,160.961946 159.471674,161.918059 159.41806,162.876791 C159.364446,163.835524 159.352154,164.753864 159.381183,165.631839 C159.410212,166.509815 159.442282,167.251858 159.477395,167.85799 L166.136201,163.534095 Z M199.952359,160.437727 C199.277877,160.476737 198.706183,160.406634 198.23726,160.227414 C197.768337,160.048194 197.382339,159.793591 197.079255,159.463599 C196.77617,159.133606 196.547027,158.761333 196.391818,158.346767 C196.236609,157.932202 196.145725,157.497632 196.119164,157.043046 C196.085014,156.458577 196.090204,155.893562 196.134735,155.347983 C196.179266,154.802405 196.161686,154.314726 196.081996,153.884932 C196.002306,153.455139 195.813451,153.118545 195.515426,152.87514 C195.217401,152.631736 194.709398,152.530798 193.9914,152.572325 C193.229888,152.616369 192.437521,152.879396 191.614276,153.361413 C190.79103,153.843429 190.058492,154.569971 189.41664,155.54106 C188.774788,156.512148 188.268103,157.741473 187.896571,159.22907 C187.525039,160.716667 187.399354,162.48867 187.519512,164.545133 C187.652318,166.818065 187.985555,168.878463 188.519233,170.726387 C189.05291,172.574312 189.782586,174.133945 190.708282,175.405333 C191.633978,176.676721 192.748962,177.638494 194.053268,178.290681 C195.357574,178.942868 196.858246,179.21988 198.55533,179.121725 C199.316842,179.077681 200.035209,178.949253 200.710451,178.736438 C201.385693,178.523623 202.019056,178.248073 202.610558,177.90978 C203.20206,177.571488 203.763511,177.186068 204.294928,176.75351 C204.826345,176.320952 205.339855,175.862286 205.835473,175.377498 L206.696908,176.109595 C206.235695,176.809595 205.636862,177.582703 204.900391,178.428943 C204.16392,179.275183 203.261435,180.082144 202.19291,180.849849 C201.124385,181.617553 199.863983,182.276886 198.411668,182.827867 C196.959352,183.378848 195.286769,183.709074 193.393868,183.818554 C191.500966,183.928034 189.635861,183.6721 187.798497,183.050744 C185.961133,182.429388 184.305762,181.46629 182.832335,180.161421 C181.358907,178.856552 180.145514,177.238016 179.19212,175.305766 C178.238726,173.373516 177.688045,171.141077 177.540061,168.608381 C177.424963,166.638506 177.569243,164.811128 177.972907,163.126191 C178.37657,161.441255 178.968894,159.9029 179.749896,158.511081 C180.530898,157.119262 181.462796,155.881634 182.545617,154.79816 C183.628439,153.714687 184.780879,152.795531 186.002971,152.040664 C187.225063,151.285797 188.484136,150.697131 189.780227,150.274646 C191.076318,149.852162 192.333554,149.605688 193.551973,149.535218 C195.162027,149.442097 196.576115,149.544928 197.794279,149.843715 C199.012442,150.142502 200.036291,150.571981 200.865854,151.132164 C201.695417,151.692348 202.329089,152.356162 202.76689,153.123626 C203.204691,153.891089 203.448251,154.696925 203.497579,155.541157 C203.534259,156.168919 203.487768,156.774332 203.358104,157.357415 C203.228441,157.940498 203.018203,158.452213 202.727383,158.892576 C202.436564,159.332939 202.0591,159.691427 201.59498,159.968052 C201.130861,160.244677 200.583326,160.401234 199.952359,160.437727 Z M217.92017,151.147032 L218.971779,175.160312 C219.022059,176.30845 219.274655,177.095113 219.729574,177.520327 C220.184493,177.945541 220.792981,178.141627 221.555056,178.108592 C222.142942,178.083107 222.658385,177.897985 223.101399,177.553219 C223.544414,177.208454 223.920205,176.8232 224.228783,176.397445 C224.600785,175.925533 224.915028,175.380169 225.171521,174.761336 L226.203909,175.172366 C225.907663,175.879739 225.554391,176.654685 225.144083,177.497227 C224.733775,178.339769 224.173895,179.129097 223.464426,179.865235 C222.754957,180.601373 221.850003,181.232029 220.749535,181.757224 C219.649068,182.282418 218.249686,182.581821 216.551348,182.655443 C215.593311,182.696973 214.667226,182.596043 213.773064,182.352651 C212.878902,182.109259 212.075618,181.699153 211.363187,181.122322 C210.650757,180.54549 210.067779,179.81113 209.614237,178.919219 C209.160695,178.027307 208.905941,176.942311 208.849969,175.664195 L207.795514,151.585926 L204.137574,151.744495 L204.035117,149.404906 C204.644776,149.378478 205.487055,149.184613 206.561977,148.823307 C207.636899,148.462001 208.729772,147.888309 209.840629,147.102216 C210.951486,146.316122 211.969767,145.284459 212.895502,144.007196 C213.821238,142.729933 214.4511,141.172513 214.785108,139.334891 L217.397923,139.221628 L217.817713,148.807443 L223.141322,148.57667 C224.883207,148.501161 225.741329,148.170961 225.715715,147.586061 C225.706228,147.369431 225.590958,147.227927 225.369902,147.161546 C225.148846,147.095164 224.899628,147.0083 224.622241,146.900952 C224.344854,146.793604 224.092553,146.636337 223.86533,146.429146 C223.638108,146.221955 223.513589,145.869241 223.491769,145.370992 C223.465206,144.764429 223.634851,144.279592 224.000709,143.916467 C224.366568,143.553342 224.85432,143.358568 225.463979,143.33214 C225.855903,143.315151 226.202389,143.38152 226.503448,143.53125 C226.804506,143.68098 227.058941,143.886988 227.266762,144.149281 C227.474583,144.411573 227.63507,144.713895 227.74823,145.056255 C227.86139,145.398615 227.925559,145.743094 227.940738,146.089701 C228.002402,147.497794 227.643247,148.636533 226.863263,149.505952 C226.083279,150.375371 224.789703,150.849244 222.982498,150.927585 L217.92017,151.147032 Z M242.987629,178.604895 C242.995266,178.886679 242.9555,179.22938 242.86833,179.63301 C242.78116,180.036639 242.562688,180.422094 242.212908,180.789387 C241.863127,181.156679 241.353935,181.474015 240.685315,181.741404 C240.016696,182.008793 239.105063,182.157974 237.950389,182.188953 C236.795715,182.219931 235.887926,182.108716 235.226993,181.855305 C234.566061,181.601894 234.067211,181.295334 233.73043,180.935616 C233.393648,180.575897 233.181847,180.201986 233.095021,179.81387 C233.008194,179.425754 232.96155,179.112485 232.955088,178.874053 L232.274794,153.773785 C232.257757,153.145191 232.095868,152.601835 231.789123,152.143699 C231.482377,151.685564 230.980431,151.465851 230.283269,151.484555 C229.912902,151.494491 229.598768,151.567992 229.340857,151.70506 C229.082946,151.842128 228.804722,152.033966 228.506176,152.280581 L227.797881,151.48616 C228.287804,151.060879 228.837777,150.639417 229.447819,150.221759 C230.05786,149.804102 230.718232,149.433905 231.428956,149.111158 C232.139679,148.788411 232.906325,148.518395 233.728917,148.301104 C234.551509,148.083812 235.420305,147.962894 236.335329,147.938346 C237.751439,147.900354 238.856771,148.060496 239.651358,148.418778 C240.445946,148.77706 241.035905,149.227591 241.421253,149.770383 C241.8066,150.313176 242.045915,150.897837 242.139204,151.524385 C242.232493,152.150933 242.285599,152.702631 242.298523,153.179495 L242.987629,178.604895 Z M230.905727,140.665591 C230.889278,140.058673 231.009726,139.475205 231.267074,138.91517 C231.524422,138.355135 231.892605,137.862631 232.371635,137.437642 C232.850665,137.012654 233.408288,136.672328 234.044522,136.416653 C234.680755,136.160978 235.380122,136.022915 236.142642,136.002457 C236.883377,135.982585 237.578312,136.083242 238.22747,136.304431 C238.876628,136.525621 239.446429,136.8357 239.93689,137.234678 C240.427351,137.633657 240.81623,138.10585 241.103539,138.651273 C241.390849,139.196696 241.542726,139.772857 241.559175,140.379775 C241.576212,141.008369 241.455911,141.597255 241.198269,142.146453 C240.940627,142.69565 240.577597,143.17717 240.109166,143.591029 C239.640736,144.004887 239.088412,144.339648 238.452179,144.595323 C237.815945,144.850997 237.127472,144.988769 236.386737,145.008642 C235.624217,145.029099 234.918388,144.928734 234.26923,144.707545 C233.620072,144.486355 233.044972,144.181841 232.543912,143.793992 C232.042851,143.406144 231.64882,142.944934 231.361804,142.41035 C231.074788,141.875765 230.922764,141.294184 230.905727,140.665591 Z M244.867872,164.894624 C244.83779,162.05424 245.2255,159.561891 246.031016,157.417501 C246.836531,155.273111 247.923622,153.478172 249.292323,152.032632 C250.661023,150.587091 252.256866,149.496983 254.079901,148.762275 C255.902936,148.027567 257.816903,147.649709 259.82186,147.62869 C261.826817,147.607671 263.748075,147.918217 265.585692,148.560336 C267.423308,149.202455 269.041254,150.199239 270.439577,151.550717 C271.8379,152.902195 272.962192,154.61974 273.812486,156.703401 C274.66278,158.787063 275.103077,161.25989 275.133389,164.121956 C275.163471,166.962339 274.776047,169.481791 273.971106,171.680387 C273.166165,173.878983 272.079705,175.733547 270.711694,177.244135 C269.343682,178.754722 267.74847,179.904456 265.926009,180.693369 C264.103549,181.482283 262.189869,181.887243 260.184912,181.908262 C258.179955,181.929282 256.258352,181.586213 254.420047,180.879047 C252.581741,180.171881 250.963107,179.110051 249.564095,177.693526 C248.165083,176.277001 247.040159,174.499831 246.189291,172.361963 C245.338423,170.224096 244.897954,167.735007 244.867872,164.894624 Z M264.968378,164.358629 C264.950008,162.624044 264.872339,160.949738 264.735369,159.335662 C264.5984,157.721586 264.348915,156.28761 263.986908,155.033691 C263.624901,153.779772 263.113049,152.782235 262.451336,152.041049 C261.789624,151.299863 260.924852,150.934873 259.856994,150.946068 C258.789137,150.957263 257.932516,151.361984 257.287108,152.160243 C256.641699,152.958501 256.15149,154.004492 255.816465,155.298245 C255.48144,156.591998 255.268175,158.063352 255.176662,159.712351 C255.085149,161.361349 255.048579,163.053116 255.066949,164.787701 C255.08532,166.522286 255.157771,168.218331 255.284303,169.875886 C255.410835,171.533441 255.65533,173.010838 256.017797,174.308122 C256.380263,175.605405 256.892574,176.646306 257.554746,177.430857 C258.216918,178.215407 259.08192,178.602079 260.149778,178.590884 C261.217635,178.579689 262.074083,178.158707 262.719147,177.327925 C263.364211,176.497143 263.853962,175.407789 264.188412,174.05983 C264.522863,172.71187 264.74106,171.191675 264.84301,169.499198 C264.94496,167.80672 264.986749,166.093215 264.968378,164.358629 Z M296.921125,166.349345 C297.002982,163.618436 296.943175,161.431108 296.741703,159.787297 C296.54023,158.143485 296.245376,156.887399 295.857131,156.018999 C295.468887,155.1506 295.028309,154.573514 294.535386,154.287724 C294.042462,154.001934 293.534594,153.851285 293.011765,153.835772 C292.380013,153.817028 291.814035,153.968354 291.313813,154.289756 C290.813592,154.611158 290.377268,154.98326 290.00483,155.406073 C289.632392,155.828886 289.31442,156.253308 289.050905,156.679353 C288.787389,157.105397 288.565249,157.424199 288.384476,157.635767 L287.733518,179.352891 C287.725072,179.634651 287.671272,179.974717 287.572115,180.373099 C287.472958,180.77148 287.249193,181.144465 286.900813,181.492066 C286.552433,181.839666 286.042302,182.12823 285.370402,182.357766 C284.698503,182.587301 283.785277,182.684939 282.630696,182.650682 C281.476116,182.616425 280.570686,182.45398 279.914378,182.163342 C279.25807,181.872705 278.76117,181.537992 278.423662,181.159194 C278.086153,180.780396 277.87968,180.394645 277.804236,180.00193 C277.728792,179.609215 277.694643,179.293655 277.70179,179.055242 L278.454094,153.957009 C278.472935,153.328466 278.342295,152.776846 278.062172,152.302132 C277.782048,151.827417 277.293441,151.579722 276.596336,151.559038 C276.225999,151.54805 275.908179,151.603699 275.642867,151.725986 C275.377554,151.848273 275.088837,152.024095 274.776708,152.253459 L274.11486,151.420332 C274.628248,151.023395 275.201373,150.633659 275.834251,150.251113 C276.467129,149.868568 277.14755,149.536248 277.875535,149.254143 C278.60352,148.972039 279.38433,148.745739 280.217989,148.575235 C281.051649,148.404732 281.92594,148.333055 282.840891,148.360202 C284.256886,148.402216 285.350004,148.667848 286.12028,149.157105 C286.890555,149.646363 287.451108,150.221585 287.801955,150.88279 C288.152803,151.543995 288.355789,152.227918 288.410921,152.934582 C288.466053,153.641246 288.486472,154.232981 288.47218,154.709807 C289.31264,153.585006 290.258435,152.582659 291.309594,151.702735 C291.735194,151.324886 292.209477,150.959333 292.732458,150.606067 C293.255439,150.2528 293.809951,149.938437 294.396012,149.662968 C294.982072,149.3875 295.599014,149.172607 296.246855,149.018283 C296.894696,148.86396 297.556267,148.796818 298.231587,148.816855 C299.712936,148.860808 301.016989,149.181507 302.143786,149.778962 C303.270583,150.376417 304.206274,151.347818 304.950888,152.693194 C305.695502,154.03857 306.242108,155.806484 306.590723,157.996991 C306.939338,160.187497 307.065244,162.897414 306.968444,166.126823 C306.874243,169.269536 306.509192,171.992002 305.873281,174.294303 C305.237369,176.596603 304.437588,178.546921 303.473912,180.145315 C302.510237,181.743709 301.435696,183.040513 300.250257,184.035765 C299.064818,185.031018 297.875163,185.803778 296.681257,186.354069 C295.487352,186.904361 294.347838,187.277291 293.262682,187.472872 C292.177526,187.668453 291.242516,187.765444 290.457623,187.763849 L290.138134,186.420247 C290.796217,186.287921 291.407875,186.067448 291.973126,185.758822 C292.538376,185.450196 293.059152,184.988405 293.535467,184.373436 C294.011783,183.758467 294.438665,182.973921 294.816128,182.019775 C295.19359,181.065629 295.529341,179.866215 295.823391,178.421498 C296.11744,176.976781 296.354091,175.264645 296.53335,173.28504 C296.712609,171.305434 296.841866,168.993559 296.921125,166.349345 Z" id="Collection"></path>
                    <path d="M105.267938,119.42036 C106.404925,116.553709 107.606421,113.355221 108.872462,109.824798 C110.138503,106.294376 111.304294,102.716837 112.36987,99.0920769 C113.435446,95.4673162 114.322235,91.9416935 115.030263,88.5151028 C115.738292,85.0885121 116.102904,82.0303104 116.124109,79.3404059 C116.140197,77.2997888 116.014315,75.5982043 115.74646,74.2356016 C115.478605,72.8729989 115.170296,71.7342677 114.821524,70.8193737 C114.472751,69.9044797 114.161396,69.1522232 113.887447,68.5625815 C113.613499,67.9729399 113.478476,67.4307797 113.482376,66.9360846 C113.487495,66.2867973 113.6698,65.7394031 114.029297,65.2938857 C114.388795,64.8483682 114.832858,64.4730924 115.361502,64.168047 C115.890146,63.8630016 116.46454,63.6433504 117.084703,63.5090869 C117.704866,63.3748233 118.293518,63.3098838 118.850678,63.3142663 C120.08881,63.3240052 121.132005,63.5177301 121.980296,63.8954469 C122.828587,64.2731637 123.419432,64.911669 123.75285,65.810982 C123.90396,66.275976 124.023933,66.7639081 124.112771,67.2747928 C124.201609,67.7856775 124.267353,68.2809129 124.310005,68.760514 C124.352657,69.2401151 124.372337,69.6886084 124.369046,70.1060073 L124.361186,71.1031221 C124.350948,72.4016967 124.120263,74.1777761 123.669123,76.4314138 C123.217984,78.6850515 122.617509,81.2312196 121.867682,84.0699947 C121.117855,86.9087698 120.250381,89.9475561 119.265236,93.1864449 C118.28009,96.4253337 117.263823,99.6871189 116.216405,102.971898 C115.168987,106.256678 114.106657,109.471721 113.029383,112.617124 C111.952108,115.762527 110.938645,118.668755 109.988962,121.335897 C109.039279,124.003038 108.192827,126.338562 107.449581,128.342539 C106.706335,130.346516 106.129624,131.841595 105.719431,132.82782 C105.435245,133.536753 105.082516,134.105996 104.661234,134.535567 C104.239952,134.965139 103.765301,135.293794 103.237267,135.521543 C102.709233,135.749293 102.127649,135.899318 101.492497,135.971622 C100.857345,136.043927 100.199292,136.077401 99.5183195,136.072045 C98.2801875,136.062306 97.2751953,135.930721 96.5033128,135.677287 C95.7314302,135.423853 95.1070727,135.109743 94.6302216,134.734947 C94.1533704,134.360152 93.8083196,133.95548 93.595059,133.520917 C93.3817983,133.086355 93.2146045,132.698541 93.0934725,132.357464 L75.9316952,77.0299075 C75.5994963,75.9760023 75.2582845,75.0843714 74.9080496,74.354988 C74.5578147,73.6256047 74.129167,73.0270251 73.6220938,72.5592311 C73.1150205,72.0914372 72.5063832,71.746531 71.7961635,71.524502 C71.0859438,71.302473 70.2046411,71.1873213 69.1522289,71.1790432 C68.2855365,71.172226 67.2779241,71.3730096 66.1293614,71.7814001 C64.9807987,72.1897906 63.8848364,72.7995679 62.8414415,73.6107503 C61.7980467,74.4219327 60.9155855,75.435348 60.1940316,76.6510266 C59.4724777,77.8667052 59.1053689,79.2784028 59.092694,80.8861618 C59.0848941,81.8755519 59.2102282,82.6649951 59.4687001,83.254515 C59.727172,83.8440349 60.0254888,84.28699 60.3636595,84.5833934 C60.7018302,84.8797967 61.0485871,85.0680436 61.4039407,85.1481397 C61.7592943,85.2282357 62.0143505,85.2688918 62.169117,85.2701092 C62.9429495,85.276196 63.5785186,85.1497857 64.0758432,84.8908745 C64.5731679,84.6319633 65.0241777,84.3572318 65.4288862,84.0666717 C65.8335947,83.7761116 66.2149606,83.5008323 66.5729954,83.2408255 C66.9310302,82.9808187 67.3421912,82.8526432 67.8064907,82.8562953 C68.1779303,82.859217 68.5719087,82.9473456 68.9884376,83.1206839 C69.4049665,83.2940223 69.7897442,83.5675979 70.1427822,83.9414192 C70.4958202,84.3152404 70.7937714,84.8045724 71.0366448,85.4094298 C71.2795181,86.0142872 71.3975405,86.749563 71.3907156,87.6152794 C71.3809658,88.8520171 71.1326721,89.9168005 70.6458273,90.8096615 C70.1589825,91.7025225 69.534015,92.4474141 68.7709061,93.0443586 C68.0077972,93.6413032 67.1375835,94.0827967 66.160239,94.3688526 C65.1828944,94.6549084 64.2144605,94.7941604 63.2549082,94.7866127 C61.7691498,94.7749261 60.4479879,94.501715 59.2913828,93.9669712 C58.1347778,93.4322275 57.1653695,92.7134448 56.383129,91.8106014 C55.6008885,90.907758 55.0055346,89.8595286 54.5970493,88.6658817 C54.188564,87.4722348 53.9896867,86.1952248 54.0004116,84.8348134 C54.0257612,81.6192954 54.6669376,78.8183582 55.92396,76.4319178 C57.1809824,74.0454775 58.8372651,72.0564422 60.8928577,70.4647524 C62.9484504,68.8730626 65.2793581,67.6932511 67.8856509,66.9252825 C70.4919436,66.1573138 73.1724717,65.7841697 75.9273154,65.8058387 C79.0226454,65.8301859 81.5570609,66.3216495 83.5306378,67.2802442 C85.5042147,68.2388389 87.0964571,69.4649691 88.3074126,70.9586715 C89.5183681,72.4523738 90.472543,74.1218236 91.169966,75.9670707 C91.867389,77.8123179 92.4876022,79.6337402 93.0306243,81.4313924 L105.267938,119.42036 Z M143.364614,127.558868 C143.35463,127.960699 143.272911,128.445783 143.119453,129.014135 C142.965996,129.582487 142.627645,130.115274 142.104391,130.612513 C141.581138,131.109752 140.835469,131.524095 139.867362,131.855555 C138.899255,132.187014 137.595196,132.332221 135.955145,132.291178 C134.315095,132.250135 133.035723,132.024813 132.116993,131.615205 C131.198262,131.205597 130.513353,130.732257 130.062243,130.195169 C129.611134,129.658082 129.338343,129.110001 129.243862,128.550909 C129.14938,127.991817 129.106364,127.542272 129.114812,127.202261 L130.00415,91.4085643 C130.026422,90.5121719 129.836943,89.726477 129.435706,89.0514559 C129.034469,88.3764348 128.338752,88.0265392 127.348533,88.0017585 C126.822479,87.9885938 126.371488,88.0700942 125.995548,88.2462619 C125.619608,88.4224297 125.210809,88.6750945 124.769141,89.0042639 L123.823198,87.8207483 C124.54951,87.2512678 125.360715,86.6916528 126.256837,86.1418865 C127.152959,85.5921202 128.116963,85.1136511 129.148879,84.7064649 C130.180794,84.2992788 131.288134,83.9713088 132.470931,83.722545 C133.653729,83.4737812 134.89494,83.3656632 136.194603,83.3981878 C138.205986,83.4485234 139.761932,83.7580889 140.862489,84.3268935 C141.963045,84.8956982 142.766547,85.5807761 143.273017,86.3821479 C143.779487,87.1835197 144.075734,88.0337443 144.161767,88.9328471 C144.2478,89.8319498 144.282368,90.6215003 144.265472,91.3015221 L143.364614,127.558868 Z M128.2001,73.3113637 C128.131018,72.4483748 128.257868,71.6085222 128.580652,70.7917807 C128.903435,69.9750392 129.388509,69.246155 130.035888,68.6051061 C130.683266,67.9640571 131.448497,67.4376748 132.331603,67.0259433 C133.21471,66.6142117 134.196224,66.3652224 135.276177,66.278968 C136.325273,66.1951779 137.318499,66.2864471 138.255884,66.5527782 C139.193268,66.8191094 140.0248,67.2179602 140.750504,67.7493427 C141.476208,68.2807253 142.063356,68.9239724 142.511967,69.6791036 C142.960577,70.4342347 143.219419,71.2432826 143.288501,72.1062715 C143.360049,73.0000814 143.233817,73.8476392 142.909799,74.6489701 C142.585782,75.4503011 142.107188,76.163159 141.474004,76.7875652 C140.84082,77.4119713 140.082686,77.9300324 139.19958,78.341764 C138.316473,78.7534955 137.350386,79.0012526 136.30129,79.0850427 C135.221338,79.1712972 134.212684,79.0812602 133.2753,78.814929 C132.337915,78.5485979 131.499286,78.1580683 130.759388,77.6433285 C130.01949,77.1285887 129.425861,76.5013679 128.978484,75.7616473 C128.531107,75.0219266 128.271648,74.2051736 128.2001,73.3113637 Z M177.815047,105.906114 C177.91378,102.01148 177.814802,98.8928158 177.51811,96.5500279 C177.221418,94.20724 176.794588,92.4178883 176.237607,91.1819192 C175.680626,89.9459501 175.051189,89.1256933 174.349276,88.721124 C173.647363,88.3165547 172.925092,88.1047792 172.18244,88.0857912 C171.285069,88.0628474 170.482205,88.2820225 169.773823,88.743323 C169.065441,89.2046236 168.448137,89.7378367 167.921892,90.3429784 C167.395647,90.94812 166.946769,91.5552305 166.575243,92.1643279 C166.203717,92.7734254 165.890265,93.2293516 165.634879,93.5321202 L164.849718,124.50358 C164.839531,124.905407 164.765303,125.390647 164.627031,125.959314 C164.488759,126.52798 164.173349,127.06118 163.68079,127.558928 C163.188232,128.056677 162.465564,128.471211 161.512766,128.802543 C160.559968,129.133875 159.263578,129.278573 157.623555,129.236641 C155.983532,129.194709 154.696545,128.968495 153.762553,128.557992 C152.828561,128.147489 152.120686,127.673182 151.638906,127.135057 C151.157126,126.596932 150.861405,126.048107 150.751735,125.488566 C150.642064,124.929025 150.591539,124.479257 150.600159,124.139249 L151.50756,88.3458858 C151.530285,87.4495017 151.341202,86.6637008 150.940308,85.9884595 C150.539414,85.3132181 149.843876,84.962944 148.853674,84.9376267 C148.327629,84.9241768 147.876599,85.0054331 147.500572,85.1813979 C147.124544,85.3573626 146.71562,85.6098069 146.273787,85.9387383 L145.328446,84.7547052 C146.055043,84.1856159 146.866526,83.6264382 147.762922,83.0771552 C148.659317,82.5278723 149.623559,82.0499237 150.655675,81.6432951 C151.687792,81.2366664 152.795292,80.9092951 153.97821,80.6611713 C155.161128,80.4130475 156.402388,80.3056017 157.702029,80.3388307 C159.713377,80.3902566 161.267593,80.7624852 162.364723,81.4555278 C163.461854,82.1485704 164.261675,82.9654513 164.764212,83.906195 C165.266749,84.8469387 165.559432,85.8209646 165.642268,86.8283021 C165.725105,87.8356395 165.757903,88.6793033 165.740664,89.3593188 C166.927116,87.7503728 168.263957,86.3154081 169.751228,85.0543815 C170.353265,84.5130374 171.024524,83.9889361 171.765025,83.4820621 C172.505526,82.975188 173.29106,82.5235995 174.12165,82.1272832 C174.95224,81.7309669 175.827077,81.4208439 176.746189,81.196905 C177.6653,80.9729661 178.604471,80.8732612 179.56373,80.8977874 C181.66791,80.9515867 183.52206,81.4010751 185.126238,82.2462661 C186.730415,83.091457 188.065572,84.4710215 189.131751,86.385001 C190.197929,88.2989805 190.985597,90.8166658 191.494778,93.9381324 C192.003959,97.059599 192.200168,100.923054 192.083412,105.528613 C191.969791,110.010534 191.468795,113.894825 190.580411,117.181602 C189.692027,120.46838 188.568646,123.25423 187.210236,125.539235 C185.851826,127.824241 184.334021,129.679858 182.656778,131.106141 C180.979534,132.532425 179.294876,133.64147 177.602753,134.433312 C175.910629,135.225153 174.294618,135.763761 172.754671,136.049151 C171.214724,136.334541 169.88739,136.478448 168.772629,136.480876 L168.310249,134.566879 C169.244049,134.374245 170.111347,134.056197 170.912168,133.612725 C171.71299,133.169253 172.449662,132.507642 173.122206,131.627872 C173.794751,130.748103 174.396,129.626821 174.925971,128.263994 C175.455942,126.901167 175.925098,125.18885 176.333453,123.126992 C176.741808,121.065134 177.066926,118.622294 177.308816,115.7984 C177.550706,112.974505 177.719448,109.677109 177.815047,105.906114 Z M234.280237,88.7516694 C233.663164,94.376235 232.521041,99.748583 230.853835,104.868875 C229.186629,109.989166 227.139484,114.741 224.712339,119.12452 C222.285193,123.508039 219.540395,127.452195 216.477861,130.957104 C213.415327,134.462014 210.18193,137.395958 206.777574,139.759024 C203.373217,142.12209 199.857748,143.866342 196.23106,144.99183 C192.604373,146.117319 189.021892,146.485558 185.483511,146.096559 C182.77588,145.79889 180.733387,145.115537 179.355971,144.04648 C177.978555,142.977423 177.374156,141.67453 177.542755,140.137764 C177.606823,139.553792 177.761508,138.995345 178.006814,138.462405 C178.252121,137.929464 178.552217,137.464767 178.90711,137.068298 C179.262003,136.67183 179.669154,136.366653 180.128576,136.152759 C180.587997,135.938865 181.063849,135.85898 181.556145,135.913102 C182.140748,135.977371 182.593311,136.322628 182.91385,136.948882 C183.234389,137.575135 183.572099,138.257703 183.926988,138.996604 C184.281878,139.735505 184.734968,140.430757 185.286271,141.082381 C185.837574,141.734004 186.651662,142.119005 187.728561,142.237396 C189.113145,142.389614 190.585377,142.310398 192.145301,141.999748 C193.705225,141.689098 195.295578,141.171838 196.916408,140.447952 C198.537238,139.724066 200.179118,138.808098 201.842098,137.700021 C203.505078,136.591943 205.160973,135.335355 206.809834,133.930218 C206.288886,130.731237 205.668371,127.23363 204.948272,123.437293 C204.228172,119.640956 203.449077,115.81486 202.610961,111.958889 C201.772846,108.102919 200.889644,104.374247 199.961329,100.772761 C199.033015,97.171276 198.09249,93.9650968 197.139727,91.1541276 C196.186964,88.3431585 195.222202,86.0674818 194.245411,84.3270293 C193.26862,82.5865769 192.334095,81.6673167 191.441808,81.5692212 C190.857206,81.5049518 190.393261,81.5472638 190.049959,81.6961584 C189.706658,81.8450531 189.301087,82.0648633 188.833236,82.3555955 L188.036633,81.1015488 C188.709328,80.6467002 189.414466,80.1798735 190.15207,79.7010548 C190.889673,79.2222361 191.74528,78.8030571 192.718916,78.4435051 C193.692552,78.0839532 194.81074,77.8258404 196.073516,77.6691588 C197.336291,77.5124772 198.829175,77.528849 200.552213,77.7182748 C202.429093,77.9246135 204.128817,78.5391777 205.651436,79.5619859 C207.174054,80.5847941 208.472104,82.3061056 209.545624,84.725972 C210.31399,86.5212758 211.083712,88.6588645 211.854815,91.1388022 C212.625919,93.6187399 213.374355,96.3760998 214.100146,99.4109647 C214.825938,102.44583 215.533278,105.71969 216.222188,109.232644 C216.911098,112.745598 217.589988,116.420703 218.258876,120.258069 C220.604883,116.472197 222.607771,112.407596 224.267599,108.064144 C225.927427,103.720692 227.016967,99.1824142 227.536253,94.4491732 C227.721712,92.7587299 227.772505,91.3023521 227.688632,90.079996 C227.60476,88.8576399 227.470732,87.808645 227.286545,86.93298 C227.102358,86.057315 226.935454,85.3079851 226.785828,84.6849679 C226.636202,84.0619508 226.586679,83.5199353 226.637259,83.0589054 C226.687839,82.5978754 226.915439,82.2263011 227.320068,81.9441714 C227.724696,81.6620416 228.198651,81.4575259 228.741948,81.3306182 C229.285245,81.2037104 229.830325,81.1314362 230.377205,81.1137934 C230.924084,81.0961506 231.382128,81.1076247 231.75135,81.1482159 C232.582101,81.2395461 233.201993,81.4787759 233.611045,81.8659122 C234.020096,82.2530486 234.297745,82.7734852 234.443999,83.4272377 C234.590253,84.0809902 234.62987,84.8552085 234.562851,85.7499157 C234.495832,86.6446229 234.401628,87.6451974 234.280237,88.7516694 Z M246.919061,126.212869 C246.856419,126.609915 246.71294,127.072439 246.48862,127.600455 C246.2643,128.128472 245.861357,128.596952 245.27978,129.005911 C244.698202,129.41487 243.898169,129.718871 242.879657,129.917925 C241.861145,130.116978 240.541683,130.088481 238.921232,129.832432 C237.300782,129.576384 236.062073,129.185011 235.205069,128.658303 C234.348065,128.131595 233.738865,127.573616 233.37745,126.984351 C233.016035,126.395086 232.825193,125.81713 232.804916,125.250465 C232.78464,124.6838 232.801004,124.232493 232.854009,123.896531 L242.177947,64.7980408 C242.317686,63.9123226 242.232979,63.108539 241.923823,62.3866659 C241.614666,61.6647928 240.970905,61.2265651 239.992519,61.0719698 C239.472752,60.989841 239.008533,61.0025725 238.599849,61.1101648 C238.191165,61.217757 237.746305,61.4057136 237.265257,61.6740402 L236.521494,60.429601 C237.316262,59.9604183 238.186249,59.5109555 239.13148,59.0811993 C240.076711,58.6514431 241.095165,58.3036972 242.186873,58.0379511 C243.278581,57.772205 244.427017,57.5936866 245.632217,57.5023905 C246.837418,57.4110944 248.082064,57.4668987 249.366195,57.6698052 C251.353541,57.983827 252.85537,58.4950327 253.871728,59.2034376 C254.888087,59.9118425 255.594702,60.6965082 255.991595,61.5574582 C256.388488,62.4184082 256.571772,63.2925481 256.541453,64.1799042 C256.511134,65.0672603 256.442971,65.8468887 256.336961,66.5188129 L246.919061,126.212869 Z" id="Vinyl"></path>
                    <path d="M14.0300851,52.7820705 C13.8663901,52.2511258 14.1619526,51.6892758 14.6873783,51.5280225 L19.4315224,50.0720427 L13.9520039,32.2992243 C13.810762,31.841106 13.6462347,31.4927125 13.4584171,31.2540332 C13.2705995,31.015354 13.0586977,30.8467529 12.8227054,30.7482249 C12.5867132,30.6496969 12.3302502,30.6144377 12.0533089,30.6424464 C11.7763676,30.6704551 11.4813667,30.7324991 11.1682973,30.8285802 C10.709129,30.9694991 10.1628649,31.2169252 9.52948864,31.5708658 C8.89611238,31.9248065 8.2486914,32.3628325 7.58720625,32.8849569 C6.92572111,33.4070814 6.27989313,33.9984749 5.64970292,34.6591552 C5.01951271,35.3198355 4.49047083,36.0121486 4.06256142,36.7361152 C3.63465201,37.4600819 3.33558162,38.2128795 3.16534127,38.9945307 C2.99510092,39.7761819 3.02875188,40.5522317 3.26629517,41.3227033 C3.47173801,41.9890572 3.72414947,42.4928274 4.02353711,42.8340291 C4.32292475,43.1752307 4.61790165,43.4095102 4.90847667,43.5368745 C5.19905169,43.6642389 5.47237012,43.7171186 5.72844016,43.6955153 C5.9845102,43.673912 6.16472074,43.6470973 6.26907718,43.6150702 C6.79085939,43.4549351 7.19142942,43.2351274 7.47079928,42.9556406 C7.75016914,42.6761539 7.99501835,42.3958677 8.20535426,42.1147736 C8.41569016,41.8336795 8.61357968,41.5678052 8.79902874,41.3171428 C8.9844778,41.0664803 9.23373326,40.8931112 9.54680259,40.7970301 C9.79725805,40.7201652 10.081018,40.6957614 10.3980908,40.723818 C10.7151637,40.7518745 11.0322259,40.8540116 11.3492867,41.0302321 C11.6663476,41.2064526 11.9709545,41.471967 12.2631166,41.8267831 C12.5552786,42.1815992 12.7912373,42.6505301 12.9709998,43.2335897 C13.2278034,44.0665321 13.2875431,44.8345752 13.1502207,45.5377422 C13.0128983,46.2409092 12.7511636,46.8739792 12.3650087,47.4369711 C11.9788539,47.9999629 11.4875565,48.4812487 10.8911017,48.8808428 C10.294647,49.2804369 9.67292398,49.5795133 9.02591403,49.7780809 C8.02409219,50.0855405 7.06845756,50.1907784 6.15898149,50.0937978 C5.24950542,49.9968173 4.41992614,49.7328624 3.67021877,49.3019252 C2.92051141,48.8709879 2.27437667,48.2943064 1.73179516,47.5718634 C1.18921366,46.8494203 0.776687138,46.0300927 0.494203228,45.1138561 C0.0512170974,43.6770306 -0.0939602388,42.2798939 0.0586668643,40.9224041 C0.211293967,39.5649143 0.593890261,38.2679294 1.20646722,37.0314105 C1.81904418,35.7948916 2.62505923,34.6300851 3.62453654,33.536956 C4.62401385,32.4438269 5.75952826,31.4400227 7.03111384,30.5255132 C8.30269941,29.6110037 9.67379379,28.7970256 11.1444381,28.0835545 C12.6150824,27.3700835 14.1226197,26.7763568 15.667095,26.3023567 C17.3785407,25.7771133 18.7588203,25.5301549 19.8079753,25.5614741 C20.8571303,25.5927932 21.6766828,25.7686512 22.2666575,26.0890532 C22.8566322,26.4094553 23.2703969,26.8067222 23.5079642,27.280866 C23.7455315,27.7550098 23.9156733,28.1586641 24.0183947,28.491841 L29.7001449,46.9205982 L41.2210386,43.3848313 L36.5889676,28.3607088 C35.529653,24.9248217 35.07637,21.8614414 35.2291051,19.1704761 C35.3818402,16.4795108 35.931885,14.1510135 36.8792561,12.1849142 C37.8266272,10.218815 39.0693517,8.61796769 40.607467,7.3823243 C42.1455822,6.1466809 43.7807738,5.26304806 45.5130908,4.73139929 C46.7027542,4.36629109 47.8622896,4.10730177 48.9917317,3.95442356 C50.1211738,3.80154535 51.1422226,3.77880275 52.0549087,3.88619508 C52.9675949,3.99358741 53.7458022,4.23911808 54.3895541,4.62279447 C55.033306,5.00647085 55.464317,5.55230135 55.6826,6.26030234 C55.7789013,6.57265572 55.8234265,6.88379893 55.8161769,7.1937413 C55.8089273,7.50368368 55.7571287,7.79880164 55.6607793,8.07910404 C55.56443,8.35940644 55.4275484,8.60085897 55.2501305,8.80346887 C55.0727125,9.00607878 54.8692145,9.14261142 54.6396303,9.2130709 C54.2639471,9.32836822 53.8947016,9.31632534 53.5318825,9.17694189 C53.1690635,9.03755845 52.8042482,8.83610918 52.4374256,8.57258805 C52.0706031,8.30906692 51.6993737,8.01271354 51.3237266,7.68351903 C50.9480794,7.35432453 50.5507613,7.06597779 50.1317605,6.81847018 C49.7127597,6.57096256 49.2696783,6.39353321 48.8025028,6.2861768 C48.3353273,6.17882039 47.8304204,6.20841203 47.2877669,6.37495261 C46.0146183,6.76568243 45.1099109,7.42512939 44.5736175,8.35331325 C44.0373241,9.28149711 43.7779519,10.4779822 43.7954931,11.9428045 C43.8130344,13.4076268 44.0725694,15.1571573 44.5741058,17.1914487 C45.0756422,19.2257401 45.7244462,21.5339118 46.5205373,24.116033 L51.4896612,40.2333868 L56.8266033,38.5954771 C57.3544328,38.433486 57.9147369,38.73165 58.0787192,39.2635267 L58.3333747,40.0895018 C58.4970697,40.6204465 58.1972505,41.1836029 57.6740508,41.3441731 L52.3371087,42.9820828 L58.1922004,61.9730733 C58.378383,62.5769565 58.6580914,63.0210638 59.0313341,63.3054085 C59.4045768,63.5897532 59.862518,63.6486543 60.4051715,63.4821137 C60.9895675,63.3027623 61.5001129,63.032108 61.936823,62.6701427 C62.373533,62.3081773 62.7508336,61.975845 63.068736,61.6731356 L63.9572643,62.6655003 C63.5943973,63.1187726 63.1580846,63.6116755 62.648313,64.1442237 C62.1385415,64.6767719 61.5597447,65.2077049 60.9119052,65.7370384 C60.2640657,66.2663719 59.5480086,66.7596527 58.7637123,67.2168955 C57.9794159,67.6741383 57.1281122,68.0436731 56.2097755,68.325511 C54.7905279,68.7610787 53.5848443,68.9259616 52.5926886,68.8201646 C51.6005328,68.7143676 50.7697513,68.4279881 50.1003191,67.9610175 C49.4308868,67.4940469 48.8991397,66.899355 48.5050617,66.1769238 C48.1109838,65.4544927 47.7919679,64.6976409 47.5480045,63.9063457 L42.0684861,46.1335273 L30.5475924,49.6692942 L35.3433748,65.2244147 C36.2165069,68.0564187 36.4607194,70.6825048 36.0760196,73.1027519 C35.6913198,75.522999 34.8181956,77.7113173 33.4566208,79.6677725 C32.0950459,81.6242277 30.3060693,83.3243393 28.0896372,84.7681585 C25.873205,86.2119776 23.3770857,87.3598295 20.6012044,88.2117486 C19.5367687,88.5384244 18.4868059,88.7637858 17.4512846,88.8878397 C16.4157633,89.0118936 15.4741829,89.0330408 14.6265151,88.9512821 C13.7788474,88.8695234 13.064852,88.6840634 12.4845075,88.3948967 C11.904163,88.10573 11.5369552,87.7112699 11.382873,87.2115045 C11.2673114,86.8366804 11.202324,86.4406429 11.1879088,86.02338 C11.1734936,85.6061172 11.222491,85.209288 11.3349026,84.8328805 C11.4473141,84.4564731 11.6227337,84.1177174 11.8611665,83.8166035 C12.0995993,83.5154895 12.4066527,83.3072869 12.7823358,83.1919896 C13.01192,83.1215301 13.250722,83.1736062 13.4987489,83.3482194 C13.7467758,83.5228326 14.0176718,83.7531057 14.3114448,84.0390458 C14.6052179,84.3249858 14.9331003,84.628944 15.2951018,84.9509295 C15.6571033,85.2729149 16.0841228,85.5464479 16.5761731,85.7715365 C17.0682234,85.9966252 17.6208775,86.1404267 18.234152,86.2029453 C18.8474264,86.2654638 19.5610431,86.1718191 20.3750234,85.9220082 C21.9821126,85.4287919 23.2749348,84.7129146 24.2535288,83.7743549 C25.2321228,82.8357951 25.9333803,81.7202339 26.3573221,80.4276378 C26.781264,79.1350416 26.949548,77.6986874 26.8621793,76.1185319 C26.7748106,74.5383764 26.4614872,72.8737341 25.9221997,71.1245552 L20.2789698,52.8207387 L15.5348258,54.2767184 C15.0081178,54.4383653 14.4487229,54.1399223 14.2847406,53.6080456 L14.0300851,52.7820705 Z M70.2620771,46.6468616 C70.425055,47.3248004 70.7028969,48.0368521 71.095611,48.7830382 C71.4883251,49.5292243 71.9725504,50.2590998 72.5483013,50.9726866 C73.1240522,51.6862735 73.7811255,52.3411798 74.5195409,52.9374251 C75.2579564,53.5336704 76.0621974,54.0301366 76.932288,54.4268387 C77.8023787,54.8235408 78.7240717,55.084663 79.6973948,55.210213 C80.6707179,55.3357631 81.6882179,55.2715037 82.7499252,55.0174331 C83.4931203,54.8395837 84.1628478,54.5896992 84.7591277,54.2677721 C85.3554076,53.945845 85.893932,53.5705296 86.3747169,53.1418147 C86.8555019,52.7130998 87.3035866,52.2418057 87.7189845,51.7279185 C88.1343824,51.2140312 88.5434078,50.6736701 88.9460731,50.1068189 L89.9256988,50.6789441 C89.5951983,51.4525698 89.1419618,52.3227684 88.5659758,53.2895659 C87.9899897,54.2563635 87.2432994,55.2135897 86.3258824,56.1612733 C85.4084654,57.1089569 84.2825632,57.9832987 82.948142,58.7843249 C81.6137209,59.5853511 80.0228488,60.2068963 78.1754781,60.6489792 C76.3281074,61.0910621 74.448326,61.1880374 72.5360775,60.9399079 C70.6238291,60.6917785 68.8278077,60.0629824 67.1479596,59.0535009 C65.4681115,58.0440194 63.9800786,56.6413943 62.6838164,54.8455835 C61.3875541,53.0497728 60.4185747,50.8172089 59.7768492,48.147825 C59.3133808,46.2199366 59.1323057,44.3925313 59.2336185,42.6655543 C59.3349313,40.9385772 59.649619,39.3285945 60.1776912,37.8355579 C60.7057633,36.3425214 61.4100448,34.975368 62.2905567,33.7340569 C63.1710686,32.4927457 64.149431,31.4016654 65.2256731,30.460783 C66.3019153,29.5199007 67.442881,28.7315703 68.6486044,28.0957683 C69.8543278,27.4599662 71.0517276,26.9997925 72.2408398,26.7152334 C73.8121666,26.3392089 75.2224924,26.1809448 76.4718594,26.2404365 C77.7212264,26.2999282 78.8021732,26.5229404 79.7147321,26.9094796 C80.6272911,27.2960189 81.3650686,27.8195921 81.9280869,28.480215 C82.4911051,29.1408379 82.8719232,29.8842572 83.0705525,30.710495 C83.3099263,31.7062176 83.2384482,32.6698932 82.856116,33.6015509 C82.4737838,34.5332085 81.8761612,35.4099542 81.0632303,36.2318142 L70.2620771,46.6468616 Z M75.1133112,38.6638445 C75.3486106,38.4283014 75.5374037,38.2094912 75.6796959,38.0074073 C75.8219882,37.8053234 75.9194797,37.580357 75.9721733,37.3325013 C76.0248669,37.0846455 76.038285,36.790182 76.0124279,36.4491019 C75.9865709,36.1080218 75.9150732,35.6938537 75.7979329,35.2065852 C75.6706064,34.6769455 75.470883,34.103028 75.1987569,33.4848154 C74.9266308,32.8666028 74.5837946,32.3045287 74.1702381,31.7985762 C73.7566816,31.2926237 73.2917313,30.8997972 72.7753733,30.6200849 C72.2590153,30.3403726 71.7035666,30.2716573 71.1090105,30.4139368 C70.3445812,30.5968677 69.7463906,30.9808604 69.3144206,31.5659265 C68.8824507,32.1509927 68.5778706,32.845592 68.4006712,33.6497452 C68.2234719,34.4538985 68.1447852,35.340885 68.1646089,36.3107314 C68.1844326,37.2805779 68.2533054,38.2442731 68.3712293,39.2018459 C68.4891532,40.1594188 68.6406303,41.0697404 68.825665,41.9328381 C69.0106998,42.7959357 69.1745176,43.5240719 69.3171233,44.1172683 L75.1133112,38.6638445 Z M108.15575,37.9734101 C107.709318,35.2646929 107.228461,33.1191525 106.713164,31.5367246 C106.197868,29.9542967 105.665555,28.7721024 105.116208,27.9901063 C104.566862,27.2081102 104.022261,26.7234111 103.48239,26.5359945 C102.94252,26.3485778 102.414028,26.2972905 101.896899,26.3821308 C101.272035,26.4846462 100.744666,26.7422765 100.314776,27.1550296 C99.8848865,27.5677826 99.527615,28.0182938 99.2429513,28.5065766 C98.9582877,28.9948594 98.727495,29.4742976 98.5505665,29.9449053 C98.3736379,30.4155131 98.2167035,30.7724405 98.0797584,31.0156982 L101.629943,52.5563419 C101.676004,52.8358127 101.688714,53.1814672 101.668073,53.5933157 C101.647433,54.0051643 101.499356,54.4158352 101.223838,54.8253409 C100.948321,55.2348466 100.502349,55.6171148 99.8859107,55.9721569 C99.2694721,56.327199 98.3902696,56.5983938 97.248277,56.7857496 C96.1062843,56.9731053 95.1845651,56.986331 94.4830917,56.8254269 C93.7816183,56.6645229 93.2283972,56.4296236 92.8234117,56.1207219 C92.4184262,55.8118203 92.1409556,55.4709648 91.9909913,55.0981453 C91.8410271,54.7253257 91.7465593,54.4206829 91.707585,54.1842076 L87.6046768,29.2899307 C87.5019264,28.6664957 87.2670238,28.1475465 86.8999619,27.7330675 C86.5329,27.3185884 86.0046244,27.1679113 85.3151194,27.2810318 C84.9488199,27.341127 84.6470218,27.4568762 84.4097161,27.6282829 C84.1724105,27.7996896 83.9224193,28.0283723 83.6597351,28.3143378 L82.8481409,27.6195284 C83.2764034,27.1297657 83.7647987,26.6356636 84.3133414,26.1372072 C84.8618841,25.6387508 85.4668706,25.1807175 86.128319,24.7630935 C86.7897674,24.3454694 87.5139303,23.9727579 88.3008295,23.6449475 C89.0877286,23.3171372 89.9336531,23.0790003 90.8386284,22.9305297 C92.2391855,22.7007539 93.3653821,22.7533358 94.2172523,23.088277 C95.0691224,23.4232183 95.731344,23.8831007 96.203937,24.4679382 C96.6765301,25.0527756 97.0081045,25.6883371 97.1986704,26.3746416 C97.3892363,27.0609461 97.5234915,27.640565 97.6014401,28.1135156 C98.2108951,26.843339 98.9475613,25.6737426 99.8114609,24.6046912 C100.157078,24.1505663 100.552942,23.6992433 100.999065,23.2507087 C101.445187,22.802174 101.929823,22.3859641 102.452987,22.0020666 C102.976151,21.618169 103.541371,21.2880927 104.148664,21.0118277 C104.755956,20.7355628 105.393572,20.5426405 106.06153,20.4330551 C107.526728,20.1926741 108.870977,20.2591594 110.094317,20.6325128 C111.317657,21.0058662 112.425222,21.7845826 113.417046,22.9686852 C114.408869,24.1527878 115.287506,25.7914942 116.052982,27.8848534 C116.818459,29.9782126 117.46515,32.6264353 117.993074,35.8296009 C118.506826,38.9467755 118.673145,41.7014066 118.492036,44.0935769 C118.310926,46.4857471 117.900757,48.5622022 117.261515,50.3230045 C116.622274,52.0838067 115.815818,53.5684352 114.842123,54.7769343 C113.868428,55.9854334 112.847659,56.9753332 111.779783,57.7466634 C110.711908,58.5179935 109.663298,59.1040046 108.633923,59.5047142 C107.604547,59.9054239 106.703798,60.1801537 105.931648,60.3289119 L105.358223,59.065134 C105.979832,58.8085993 106.53878,58.4740324 107.035082,58.0614232 C107.531385,57.648814 107.954399,57.0936826 108.304136,56.3960124 C108.653873,55.6983422 108.92228,54.8429147 109.109363,53.8297044 C109.296447,52.816494 109.395189,51.5694064 109.405591,50.0884041 C109.415993,48.6074018 109.318352,46.873683 109.112666,44.8871958 C108.906979,42.9007085 108.588011,40.5961364 108.15575,37.9734101 Z M130.486982,25.5807299 C131.220223,24.2590149 132.016828,23.0527583 132.876822,21.9619242 C133.23629,21.4982224 133.629228,21.0429587 134.055649,20.5961194 C134.48207,20.1492802 134.928065,19.7446833 135.393649,19.3823166 C135.859233,19.0199499 136.346016,18.72155 136.854013,18.487108 C137.36201,18.2526659 137.877311,18.1159932 138.399932,18.0770857 C139.5105,17.9944072 140.406301,18.2608798 141.087359,18.8765114 C141.768417,19.4921431 142.153624,20.397412 142.242991,21.5923453 C142.298237,22.3310314 142.291567,23.0470073 142.222983,23.7402945 C142.154399,24.4335817 141.982462,25.2820181 141.707167,26.2856292 L140.792586,26.353717 C140.61156,25.689936 140.264863,25.153194 139.752484,24.743475 C139.240106,24.333756 138.526634,24.1629431 137.612048,24.2310312 C136.936996,24.2812867 136.282185,24.4556539 135.647596,24.754138 C135.013006,25.0526221 134.399225,25.4096316 133.806236,25.8251773 C133.213247,26.240723 132.655367,26.6864194 132.13258,27.1622798 C131.609792,27.6381403 131.134383,28.0886203 130.706338,28.5137335 L132.288133,49.6639479 C132.309256,49.9463867 132.29089,50.2863778 132.233034,50.6839315 C132.175178,51.0814852 131.990489,51.4666286 131.678961,51.8393733 C131.367433,52.2121181 130.888937,52.5481327 130.243459,52.8474274 C129.597982,53.146722 128.698196,53.3393268 127.544075,53.4252476 C126.389955,53.5111683 125.470671,53.4430643 124.786197,53.2209335 C124.101722,52.9988027 123.571475,52.7160392 123.195438,52.3726345 C122.819402,52.0292298 122.573212,51.6652407 122.456861,51.2806562 C122.34051,50.8960716 122.273399,50.5842907 122.255525,50.3453041 L120.373945,25.1866515 C120.326824,24.5565957 120.138812,24.0189635 119.809903,23.5737386 C119.480994,23.1285138 118.968134,22.9318427 118.271306,22.9837193 C117.901117,23.0112788 117.590246,23.0999623 117.338685,23.2497724 C117.087124,23.3995825 116.817853,23.6053259 116.530864,23.8670086 L115.783996,23.1033512 C116.253969,22.6532697 116.784223,22.2041683 117.374775,21.7560335 C117.965327,21.3078987 118.608521,20.905006 119.304376,20.5473434 C120.000232,20.1896807 120.754577,19.8822849 121.567436,19.6251468 C122.380295,19.3680087 123.244005,19.205398 124.158591,19.1373099 C125.094953,19.0676006 125.904546,19.1329474 126.587396,19.3333521 C127.270246,19.5337569 127.839007,19.8191148 128.293696,20.1894346 C128.748385,20.5597544 129.114177,20.9858413 129.391083,21.4677081 C129.66799,21.9495749 129.885415,22.441324 130.043367,22.9429701 C130.201318,23.4446162 130.308648,23.9281766 130.365358,24.3936658 C130.422068,24.8591549 130.46261,25.254839 130.486982,25.5807299 Z M156.479412,49.7262954 C156.460606,50.0088946 156.3888,50.3480024 156.263992,50.743629 C156.139184,51.1392556 155.885098,51.5044264 155.501726,51.8391524 C155.118354,52.1738784 154.580644,52.4437276 153.888579,52.6487079 C153.196513,52.8536883 152.273111,52.9177001 151.118345,52.8407453 C149.963578,52.7637906 149.068429,52.5676715 148.43287,52.2523821 C147.797311,51.9370928 147.328424,51.5837872 147.026195,51.1924547 C146.723967,50.8011222 146.547745,50.4072753 146.497526,50.0109021 C146.447306,49.614529 146.430153,49.2967859 146.446065,49.0576635 L148.121211,23.8847193 C148.163162,23.2543056 148.052621,22.6956185 147.789584,22.2086411 C147.526547,21.7216638 147.046427,21.4549475 146.349209,21.4084843 C145.978812,21.3838007 145.658551,21.4279615 145.388415,21.5409682 C145.118279,21.6539749 144.822742,21.8198732 144.501797,22.0386679 L143.869724,21.1777449 C144.398334,20.7981107 144.986491,20.4279096 145.634213,20.0671305 C146.281934,19.7063514 146.975413,19.3977552 147.714671,19.1413328 C148.453929,18.8849104 149.244029,18.6864669 150.084994,18.5459964 C150.925959,18.4055259 151.803977,18.3657828 152.719075,18.4267658 C154.135299,18.5211443 155.222921,18.7846762 155.981975,19.2173694 C156.74103,19.6500626 157.287303,20.155908 157.620812,20.7349209 C157.954321,21.3139338 158.138226,21.9211789 158.172533,22.5566745 C158.20684,23.1921701 158.208081,23.7490319 158.176256,24.2272768 L156.479412,49.7262954 Z M145.837525,10.4632625 C145.87803,9.85458726 146.052899,9.28216844 146.362138,8.74598888 C146.671376,8.20980933 147.084848,7.75154634 147.602564,7.37118616 C148.12028,6.99082599 148.70846,6.70250567 149.36712,6.50621656 C150.025779,6.30992744 150.73639,6.23719356 151.498971,6.28801275 C152.239765,6.33737995 152.923569,6.50303894 153.550404,6.78499468 C154.177239,7.06695042 154.716574,7.4304094 155.168426,7.87538254 C155.620278,8.32035567 155.96393,8.82907409 156.199392,9.40155307 C156.434855,9.97403204 156.532332,10.5646003 156.491828,11.1732756 C156.449876,11.8036892 156.274646,12.3815426 155.96613,12.9068529 C155.657615,13.4321633 155.250314,13.8799202 154.744215,14.2501372 C154.238116,14.6203542 153.655745,14.9036029 152.997085,15.0998921 C152.338425,15.2961812 151.638709,15.369641 150.897915,15.3202738 C150.135334,15.2694546 149.440636,15.1030697 148.813801,14.8211139 C148.186966,14.5391582 147.641822,14.1807707 147.178353,13.7459408 C146.714884,13.3111109 146.365062,12.8128985 146.128876,12.2512888 C145.89269,11.689679 145.795574,11.0936762 145.837525,10.4632625 Z M172.450469,27.0763722 C173.262366,26.0896972 174.129554,25.089297 175.052059,24.0751419 C175.974563,23.0609867 176.95759,22.1533126 178.001167,21.3520923 C179.044745,20.550872 180.168333,19.906126 181.371965,19.4178349 C182.575598,18.9295439 183.875378,18.7184444 185.271343,18.7845302 C186.514625,18.8433878 187.539074,19.1372543 188.34472,19.6661386 C189.150367,20.1950228 189.793225,20.8143407 190.273315,21.5241107 C190.753405,22.2338807 191.079517,22.9636142 191.25166,23.7133331 C191.423804,24.4630519 191.497497,25.0990463 191.472742,25.6213352 C191.427358,26.5788648 191.254752,27.5685257 190.954919,28.5903477 C190.655087,29.6121696 190.181282,30.6148348 189.53349,31.5983733 C188.885698,32.5819118 188.037705,33.5232416 186.989486,34.4223911 C185.941267,35.3215405 184.635192,36.1266792 183.071222,36.8378312 C184.916284,41.26554 186.735412,45.0867134 188.528661,48.3014662 C190.32191,51.516219 192.070546,54.1726441 193.774622,56.2708212 C195.478698,58.3689983 197.136874,59.9360665 198.749198,60.972073 C200.361523,62.0080795 201.920174,62.5616987 203.4252,62.6329475 C203.686943,62.6453385 203.95023,62.6250869 204.215068,62.5721918 C204.479906,62.5192968 204.723444,62.4544891 204.945689,62.3777669 C205.189747,62.3020772 205.445738,62.2051433 205.71367,62.0869622 L206.281156,63.258892 C205.676761,63.5574427 205.062243,63.8391512 204.437583,64.1040262 C203.812924,64.3689012 203.102832,64.5915589 202.307286,64.772006 C201.511741,64.9524531 200.598307,65.083695 199.566956,65.1657355 C198.535605,65.2477759 197.311059,65.2552369 195.893282,65.1881185 C194.606376,65.1271957 193.343068,64.9147163 192.103321,64.5506738 C190.863574,64.1866314 189.629738,63.5829575 188.401777,62.7396339 C187.173817,61.8963104 185.941893,60.7910845 184.705969,59.4239232 C183.470045,58.0567619 182.217926,56.3398848 180.949574,54.2732406 C179.681221,52.2065963 178.392768,49.7573461 177.084175,46.9254165 C175.775582,44.0934869 174.434655,40.7911416 173.061356,37.0182814 C175.228538,35.5723055 176.943134,34.2194324 178.205196,32.9596216 C179.467258,31.6998109 180.428912,30.5512091 181.090189,29.5137818 C181.751466,28.4763545 182.178038,27.5477902 182.369917,26.7280609 C182.561797,25.9083316 182.67166,25.2046901 182.699509,24.6171151 C182.703635,24.5300669 182.699692,24.3826591 182.687679,24.1748872 C182.675666,23.9671152 182.614319,23.7624635 182.503636,23.560926 C182.392954,23.3593884 182.226712,23.1770341 182.004907,23.0138577 C181.783102,22.8506812 181.46499,22.7592847 181.050563,22.7396655 C180.24352,22.7014597 179.409339,23.0054851 178.547993,23.6517508 C177.686647,24.2980166 176.855749,25.1092924 176.055273,26.0856028 C175.254797,27.0619131 174.521611,28.1177307 173.855692,29.2530871 C173.189774,30.3884436 172.637823,31.4255777 172.199823,32.3645207 L171.401471,49.2082529 C171.388062,49.4911594 171.322998,49.8261426 171.206278,50.2132126 C171.089558,50.6002826 170.843001,50.9593897 170.4666,51.2905445 C170.090199,51.6216994 169.552538,51.8961411 168.853599,52.1138779 C168.15466,52.3316148 167.227188,52.4131183 166.071154,52.3583911 C164.91512,52.3036638 164.016384,52.1248013 163.374918,51.8217981 C162.733453,51.5187949 162.263358,51.1748349 161.96462,50.7899077 C161.665881,50.4049806 161.487627,50.0148575 161.429851,49.6195267 C161.372076,49.224196 161.348862,48.9068442 161.360208,48.6674618 L163.356088,6.55813127 C163.386,5.92703221 163.264816,5.37057914 162.992531,4.88875539 C162.720246,4.40693163 162.235119,4.14950217 161.537137,4.11645929 C161.166333,4.09890526 160.841775,4.14351949 160.563453,4.25030331 C160.28513,4.35708714 159.987616,4.52293964 159.670903,4.74786578 L159.05368,3.93345883 C159.574953,3.5437297 160.150489,3.16202829 160.780306,2.78834313 C161.410123,2.41465797 162.097592,2.09278185 162.842733,1.8227051 C163.587875,1.55262835 164.379502,1.33928323 165.21764,1.18266332 C166.055778,1.02604341 166.932885,0.9694187 167.848987,1.01278748 C169.266765,1.07990584 170.359227,1.32246582 171.126407,1.74047471 C171.893587,2.15848359 172.449419,2.65372359 172.79392,3.22620956 C173.138421,3.79869553 173.334141,4.39684559 173.381086,5.02067771 C173.428031,5.64450982 173.440157,6.19580001 173.417465,6.67456482 L172.450469,27.0763722 Z M192.688796,20.8393701 C194.101743,20.0180667 195.099365,19.1085555 195.681693,18.1108091 C196.26402,17.1130627 196.587024,16.1468739 196.650713,15.2122137 C196.718845,14.2123445 196.501432,13.3077632 195.998466,12.4984424 C195.495501,11.6891216 194.925597,10.978995 194.288738,10.3680413 C193.984163,10.0198308 193.845208,9.65010447 193.871869,9.25885134 C193.902973,8.80238936 194.087317,8.34541035 194.424908,7.88790061 C194.762498,7.43039086 195.195898,7.0121417 195.72512,6.63314057 C196.254342,6.25413944 196.860069,5.95676134 197.542319,5.74099735 C198.224569,5.52523335 198.925154,5.44173551 199.644096,5.49050131 C200.319465,5.53631161 200.884939,5.74935911 201.340535,6.12965021 C201.796131,6.5099413 202.148501,6.95965276 202.397654,7.47879809 C202.646807,7.99794341 202.817855,8.53907884 202.910803,9.10222062 C203.00375,9.66536239 203.035412,10.1642886 203.005789,10.5990143 C202.918402,11.8814552 202.606709,13.0831527 202.0707,14.204143 C201.534692,15.3251333 200.839741,16.369816 199.985828,17.3382223 C199.131914,18.3066286 198.1583,19.1850137 197.064955,19.9734037 C195.97161,20.7617938 194.824665,21.4537304 193.624086,22.0492344 L192.688796,20.8393701 Z M208.055988,24.7972122 C207.555608,24.7541604 207.076802,24.7785657 206.619554,24.8704288 C206.162306,24.9622919 205.74698,25.1397611 205.373562,25.4028417 C205.000144,25.6659222 204.696309,26.0115196 204.462048,26.4396442 C204.227787,26.8677688 204.084393,27.385706 204.031862,27.9934712 C203.958694,28.8400013 204.196009,29.7077654 204.743815,30.5967894 C205.291621,31.4858134 205.988892,32.420485 206.835648,33.4008321 C207.682405,34.3811793 208.602479,35.4006214 209.595897,36.459189 C210.589315,37.5177566 211.501884,38.6240209 212.333632,39.7780153 C213.16538,40.9320097 213.838731,42.1434273 214.353705,43.4123046 C214.868679,44.6811819 215.066127,46.0101894 214.946056,47.399367 C214.810976,48.9621919 214.424404,50.3284193 213.786329,51.4980902 C213.148253,52.6677611 212.297703,53.6332632 211.234653,54.3946256 C210.171602,55.155988 208.919246,55.6987804 207.477546,56.0230191 C206.035846,56.3472577 204.455671,56.4354389 202.736975,56.2875653 C201.235835,56.1584098 199.894419,55.8297936 198.712686,55.3017067 C197.530954,54.7736198 196.493652,54.1595644 195.60075,53.4595221 C194.707849,52.7594798 193.954214,52.033162 193.339824,51.2805468 C192.725435,50.5279316 192.257713,49.853547 191.936646,49.2573726 L193.149166,48.5416754 C193.403847,48.8915976 193.732324,49.2751977 194.134605,49.6924873 C194.536886,50.109777 194.990456,50.5041399 195.495328,50.8755879 C196.0002,51.247036 196.548295,51.5620638 197.13963,51.8206808 C197.730966,52.0792977 198.342081,52.2357453 198.972995,52.290028 C200.539402,52.4247989 201.855329,52.1608134 202.920814,51.4980634 C203.9863,50.8353135 204.582822,49.765954 204.710397,48.2899527 C204.781689,47.4651285 204.583384,46.5897873 204.115475,45.6639028 C203.647566,44.7380184 203.0406,43.7728492 202.294558,42.7683664 C201.548516,41.7638836 200.740033,40.7212421 199.869085,39.6404106 C198.998137,38.5595792 198.195283,37.451821 197.460497,36.3171027 C196.725712,35.1823845 196.135161,34.0272915 195.688827,32.8517892 C195.242494,31.6762869 195.07186,30.4807885 195.176923,29.2652581 C195.295117,27.8977863 195.675682,26.727845 196.318629,25.755399 C196.961575,24.7829531 197.774423,24.0000765 198.757198,23.4067459 C199.739972,22.8134152 200.838725,22.3995424 202.053487,22.1651151 C203.26825,21.9306877 204.506527,21.8677577 205.768355,21.9763232 C207.225983,22.101735 208.541802,22.3461477 209.71585,22.7095685 C210.889897,23.0729893 211.883598,23.5575582 212.696981,24.1632896 C213.510365,24.769021 214.116213,25.493557 214.514544,26.3369194 C214.912874,27.1802819 215.066072,28.1337433 214.974143,29.1973325 C214.902851,30.0221567 214.568999,30.7150433 213.972576,31.2760131 C213.376154,31.8369828 212.588452,32.0753482 211.609448,31.9911164 C210.673955,31.9106282 209.978822,31.6485505 209.524028,31.2048754 C209.069233,30.7612003 208.871857,30.1920769 208.931892,29.4974881 C208.971291,29.0416642 209.116462,28.6933491 209.367409,28.4525324 C209.618357,28.2117157 209.892274,28.0220798 210.189168,27.8836192 C210.486062,27.7451586 210.753882,27.6260659 210.992635,27.5263375 C211.231388,27.4266092 211.359205,27.2790707 211.37609,27.0837176 C211.428621,26.4759523 211.144034,25.9649264 210.52232,25.5506245 C209.900606,25.1363226 209.078504,24.8851877 208.055988,24.7972122 Z" id="Henriks"></path>
                </g>
            </g>
        </g>
    </g>
</svg>