<svg width="158" height="191" viewBox="0 0 158 191" xmlns="http://www.w3.org/2000/svg"><title>Pika</title><g fill="none" fill-rule="evenodd"><path d="M33.006 184.763c1.12 4.455 8.47 5.03 15.466 4.967 7.977-.073 17.1-2.947 28.553-2.947 9.908 0 19.826 2.665 27.98 2.947 8.396.29 16.837 1.47 17.83-4.345.995-5.816-11.505-8.572-11.505-10.073 0-5.6-5.21-3.536-32.68-3.536s-35.003-2.62-35.003 2.98c0 .735-11.76 5.552-10.64 10.007z" fill="#3674A6"/><path d="M107.04 148.875l-4.876-5.54 8.846-7.058-25.533-7.543s9.383-.275 12.938-2.846l17.48-12.648c.586-.425.702-1.23.257-1.803L97.664 87.68s30.155-17.304 41.657-21.273c7.726-3.168 13.503-3.18 13.503-3.18.718-.037 1.385.507 1.49 1.234 0 0 1.39 9.383 1.84 15.056.444 5.63.624 16.255.624 16.255.014.718-.558 1.37-1.275 1.457l-34.547 4.166c-.718.087-.932.616-.484 1.173l10.245 12.75c.45.563.3 1.305-.32 1.65l-18.916 10.54 12.02 6.428c.63.338.676.973.11 1.408l-12.13 9.348 3.27 4.185h-7.71z" stroke="#2B2B2B" stroke-width="1.309" fill="#E4AA2E"/><path d="M123.26 134.8c.174-.138.066-.22.066-.22l-14.207-7.575 5.69 14.32s5.787-4.42 8.45-6.526z" fill="#8D3F1C"/><path d="M149.155 64.29c-.958.15-3.18.526-5.64 1.298-1.248.392-5.135 1.753-6.323 2.277-3.45 1.52-4.664 2.078-8.052 3.675-11.628 5.48-22.362 11.926-22.362 11.926s21.254 2.956 31.172 5.1c9.92 2.146 18.14 5.3 18.14 5.3s-.113-10.308-.605-15.492c-.286-3.006-.795-8.293-1.352-11.452-.237-1.347-.305-2.057-.507-2.54-.06-.145-.03-.114-.127-.268-.428-.663-3.925.11-4.345.176z" fill="#FFD622"/><path d="M40.952 141.415c10.26-18.105 9.43-35.747 9.43-35.747-.01-.35.285-.632.632-.632h54.623c.357 0 .67.294.703.645 0 0 1.034 14.908 8.81 35.735 7.776 20.828-5.843 41.436-5.843 41.436-.19.306-.622.476-.984.38 0 0-9.867-2.948-29.856-2.948-19.99 0-27.492 2.916-27.492 2.916-.336.113-.79-.02-1.013-.306 0 0-19.27-23.37-9.01-41.477z" stroke="#2B2B2B" stroke-width="1.309" fill="#FFD622"/><path d="M60.86 180.608c5.205-.685 12.135-.99 18.766-.99 6.016 0 11.637.45 16.09.99 6.976.846 12.82 1.99 12.82 1.99 0-3.96 9.7-5.268 5.783-8.495-3.78-3.112-11.987-7.594-20.796-8.648-4.978-.596-11.17 1.256-13.898 1.256-2.946 0-11.527-1.816-15.937-1.255-9.208 1.17-15.578 4.21-19.442 8.648-2.182 2.505 5.46 6.02 5.46 8.766 0 0 4.236-1.353 11.152-2.262z" fill="#DEA140"/><g stroke="#2B2B2B" stroke-width="1.309" fill="#FFD622"><path d="M48.463 146.99s1.502 10.686 3.72 15.558c1.7 3.743 2.815 5.785 5.094 9.257 1.238 1.887 1.103 3.74 1.103 3.74.005.36.238.475.537.253 0 0 1.236-1.03 2.36-1.236.667-.122 1.026.614 1.026.614.45.564 1.202.585 1.685.044l.43-.483c.482-.54 1.316-.606 1.872-.14.553.462 1.31.33 1.682-.277l.033-.053c.377-.615 1.125-.733 1.678-.257l.048.042c.55.473 1.137.29 1.313-.42.174-.704.875-1.073 1.55-.828l.57.207c.337.122.608-.08.604-.43 0 0 .006-5.743-.95-19.45-.955-13.704-4.13-20.88-4.13-20.88M107.577 146.99s-1.502 10.686-3.72 15.558c-1.7 3.743-2.815 5.785-5.094 9.257-1.238 1.887-1.103 3.74-1.103 3.74-.005.36-.238.475-.537.253 0 0-1.236-1.03-2.36-1.236-.667-.122-1.026.614-1.026.614-.45.564-1.202.585-1.685.044l-.43-.483c-.482-.54-1.273-.55-1.768-.023l.06-.065c-.494.526-1.224.47-1.63-.128l-.195-.287c-.408-.597-1.187-.702-1.73-.243l.13-.11c-.55.463-1.183.29-1.42-.4l.038.112c-.235-.684-.986-1.035-1.662-.79l-.57.207c-.336.122-.607-.08-.603-.43 0 0-.006-5.743.95-19.45.955-13.704 4.13-20.88 4.13-20.88"/></g><g><path d="M110.865 99.68c0 12.26-14.74 25.64-32.54 25.64-17.8 0-32.348-13.44-32.348-24.446 0-11.006 64.888-13.452 64.888-1.193z" fill="#DEA140"/><path d="M55.107 53.7c5.584-3.563 13.347-6.244 23.218-6.244 8.82 0 16.026 2.19 21.514 5.228 1.742-8.183 5.537-18.5 9.377-28.003 7.445-18.427 18.046-22.84 18.046-22.84.947-.54 1.992-.092 2.32.94 0 0 4.562 10.536-2.883 28.964-4.727 11.7-10.36 24.24-15.77 31.06 1.096 1.857 1.653 3.574 1.653 4.936 0 2.105-.282 10.453 0 13.334.563 5.77 1.397 7.165 2.567 15.456 1.754 12.432-19.542 24.21-36.825 24.21s-38.48-13.378-36.41-24.21c1.42-7.45 2.11-9.227 2.6-15.456.22-2.83 0-11.26 0-13.334 0-1.15.345-2.51 1.033-3.97-7.882-3.55-17.996-10.635-27.12-17.51C2.557 34.3 1.04 22.92 1.04 22.92c-.276-1.055.426-1.948 1.508-2 0 0 11.358-1.678 27.23 10.284 9.71 7.315 19.956 15.646 25.33 22.498z" stroke="#2B2B2B" stroke-width="1.309" fill="#FFDC3F"/><g fill="#2B2B2B"><path d="M121.582 5.955c-2.273 1.886-5.822 6.902-5.822 6.902s3.94 1.54 6.677 7.15c2.736 5.613 3.16 13.814 3.16 13.814s2.617-5.26 4.094-11.083c.88-3.466.898-7.304.98-9.88.223-6.902-2.214-11.212-2.214-11.212s-4.814 2.6-6.874 4.31zM9.513 21.497c2.927.395 8.595 2.768 8.595 2.768s-3.24 2.025-1.873 9.603c1.368 7.578 4.64 13.39 4.64 13.39s-5.007-3.075-9.346-7.23c-2.584-2.475-4.673-5.695-6.11-7.836C1.576 26.457 1.4 21.485 1.4 21.485s5.46-.346 8.113.012z"/></g><g stroke="#2B2B2B" stroke-width="1.309"><path d="M45.41 64.103s.743-1.606 1.24-2.455c.38-.65 1.144-1.805 1.144-1.805M54.953 53.725l-1.71 1.504M99.96 52.663l1.8 1.552M110.94 62.744l-2.705-3.51"/></g><path d="M46.106 61.38c.357-.586 1.092-1.81 1.092-1.81l-10.884-1.513s2.816 1.75 4.38 2.612c1.233.677 4.447 2.37 4.447 2.37s.593-1.05.966-1.66zM114.163 57.028c-.42.697-1.273 2.024-1.728 2.688l-1.42 2.07-2.28-2.984 7.548-5.563s-.977 1.885-2.12 3.788z" fill="#DEA140"/></g><g><path d="M68.057 95.802c-.085-.34.136-.602.492-.59 0 0 2.595.234 5.127-.767 1.952-.773 3.653-3.15 5-3.15 1.082 0 3.31 2.16 5.766 3.15 2.024.814 4.356.734 4.356.734.36.002.582.296.493.64 0 0-2.376 11.18-10.616 11.18S68.057 95.8 68.057 95.8z" stroke="#2B2B2B" stroke-width="1.309" fill="#700807"/><path d="M70.107 100.112c-.135-.324-.047-.8.226-1.042 0 0 1.5-2.162 8.343-2.162s8.357 2.174 8.357 2.174c.252.245.348.716.2 1.055 0 0-2.337 6.554-8.557 6.554-6.22 0-8.57-6.578-8.57-6.578z" fill="#A91C29"/><path d="M70.896 101.714c-.176-.303-.07-.707.238-.882 0 0 2.264-1.685 7.54-1.685 5.28 0 7.543 1.685 7.543 1.685.307.184.417.585.225.903 0 0-2.47 4.946-7.767 4.946-5.298 0-7.78-4.966-7.78-4.966z" fill="#F05460"/><path d="M88.643 95.83c.46.028 1.052-.005 1.737-.142 1.014-.202 2.032-.597 3.01-1.23 0 0 .69-.447.34-.994-.35-.546-1.045-.107-1.045-.107-.833.54-1.698.876-2.557 1.048-.57.113-1.056.14-1.41.12l-.054-.004-.14 1.302.12.01zM68.557 95.9c-.46.026-1.052-.007-1.737-.144-1.014-.202-2.032-.597-3.01-1.23 0 0-.69-.447-.34-.994.35-.546 1.045-.107 1.045-.107.833.54 1.698.877 2.557 1.048.57.113 1.056.14 1.41.12l.054-.004.14 1.3-.12.01z" fill="#2B2B2B" fill-rule="nonzero"/><g fill="#2B2B2B"><path d="M77.013 85.303c-.353-.304-.264-.55.208-.55h2.21c.467 0 .558.247.207.55l-.673.58c-.353.305-.927.303-1.278 0l-.673-.58z"/></g><g><g transform="translate(93.825 73.63)"><ellipse fill="#2B2B2B" cx="5.905" cy="5.889" rx="5.905" ry="5.889"/><ellipse fill="#FFF" cx="7.504" cy="4.3" rx="2.531" ry="2.524"/></g><g transform="translate(51.667 70.91)"><ellipse fill="#2B2B2B" cx="5.905" cy="8.608" rx="5.905" ry="5.889"/><ellipse fill="#FFF" cx="7.504" cy="7.019" rx="2.531" ry="2.524"/></g></g><g stroke="#2B2B2B" stroke-width="1.309" fill="#E95238"><path d="M109.524 108.932c-.267.073-2.262-.597-4.713-2.975-2.45-2.377-3.088-4.304-3.088-6.156 0-3.612 2.91-6.542 6.502-6.542 1.77 0 4.5-.167 5.672.986 1.208 1.188 1.49 3.32 1.49 5.153 0 3.016-3.105 8.777-5.862 9.535zM47.866 108.16c.266.075 2.162.175 4.613-2.203 2.45-2.377 3.088-4.304 3.088-6.156 0-3.612-2.91-6.542-6.502-6.542-1.77 0-4.5-.167-5.672.986-1.208 1.188-1.49 3.32-1.49 5.153 0 3.016 3.204 8.006 5.962 8.764z"/></g><g fill="#DEA140"><path d="M75.808 112.118c-.765-.66-.574-1.193.43-1.193h4.825c1.002 0 1.19.538.43 1.193l-1.46 1.258c-.763.66-2.006.656-2.767 0l-1.458-1.258z"/></g></g><g><path d="M121.14 174.01c4.82-4.818 9.043-9.04 10.19-12.598.27-.84-.475-2.06-.58-2.826-.132-.957.26-1.437-.576-2.273-1.27-1.27-1.183.85-2.1-1.3-.918-2.15-10.38 5.116-15.598 10.334-3.873 3.873-13.09 15.91-9.033 17.697 7.015 3.092 10.316-1.65 17.698-9.033z" stroke="#2B2B2B" stroke-width="1.309" fill="#FFD622"/><path d="M107.194 183.38c-.657-.062-3.05-.13-3.798-1.014-.82-.967.43-3.96.43-3.96s2.53 1.804 4.926-1.107c2.25-2.734 4.972-5.788 7.063-7.353 1.794-1.343 4.907-4.433 7.576-5.564 3.357-1.423 6.137-.738 6.137-.738s-.388.7-1.544 2.14c-.536.666-1.422 1.68-2.177 2.52-2.255 2.403-7.247 7.684-9.427 9.864-2.18 2.18-3.563 3.005-4.13 3.445-2.26 1.756-3.68 1.893-5.056 1.765z" fill="#DEA140"/><path d="M130.87 159.78l-1.56 1.29" stroke="#2B2B2B" stroke-width="1.309"/><g><path d="M34.75 174.075c-4.82-4.82-9.043-9.042-10.19-12.6-.27-.84.476-2.06.58-2.825.132-.957-.26-1.436.576-2.272 1.27-1.27 1.183.85 2.1-1.3.918-2.15 10.38 5.115 15.598 10.333 3.874 3.874 13.09 15.91 9.033 17.7-7.015 3.09-10.316-1.653-17.697-9.035z" stroke="#2B2B2B" stroke-width="1.309" fill="#FFD622"/><path d="M49.114 183.397c.683-.064 3.05-.175 3.595-1.402.553-1.246-1.06-4.274-1.06-4.274s-2.023 1.724-4.534-1.317c-2.138-2.59-4.405-4.905-6.39-6.39-1.707-1.28-5.137-5.2-7.812-6.283-3.676-1.487-6.482.062-6.482.062s.85 1.563 3.23 4.217c2.256 2.402 7.954 8.093 10.134 10.273 2.18 2.18 3.12 2.833 3.687 3.273 2.262 1.757 4.256 1.97 5.63 1.84z" fill="#DEA140"/><path d="M27.074 156.034s1.593.92 2.15 1.336c.44.328 1.086 1.085 1.086 1.085M24.722 158.82l1.91 1.533" stroke="#2B2B2B" stroke-width="1.309"/></g></g></g></svg>